<?xml version="1.0" encoding="UTF-8"?>
<svg version="1.1" xmlns="http://www.w3.org/2000/svg" width="176" height="176">
<path d="M0 0 C7.87504543 6.75003894 7.87504543 6.75003894 10.50067043 9.37482929 C11.10330162 9.97485274 11.70593282 10.57487618 12.32682556 11.19308215 C12.96400593 11.83249325 13.6011863 12.47190434 14.25767517 13.13069153 C14.95377649 13.82523286 15.64987782 14.51977419 16.36707312 15.23536223 C18.68320712 17.54752901 20.99577584 19.86322787 23.30834961 22.17895508 C24.9741786 23.8434282 26.64022007 25.5076887 28.30645752 27.17175293 C32.81856988 31.67931513 37.32752398 36.19002413 41.83577418 40.70144868 C46.07396809 44.94191926 50.31416908 49.18038172 54.55423398 53.41898128 C63.45595638 62.31785687 72.35461906 71.21978703 81.25222779 80.12277546 C88.89240584 87.76742963 96.53521425 95.40944585 104.17993164 103.04956055 C113.06127044 111.92555462 121.9409938 120.80315965 130.81812292 129.68336409 C135.5163169 134.38314141 140.21521355 139.08221181 144.91584587 143.77955055 C149.32822355 148.18905219 153.73817196 152.60096866 158.14620972 157.01480865 C159.76918601 158.63911351 161.39302552 160.26255635 163.01776314 161.88509941 C165.22455432 164.0891831 167.42828218 166.29628301 169.63121033 168.50422668 C170.28400575 169.15479139 170.93680117 169.80535609 171.60937828 170.47563487 C176 174.88584948 176 174.88584948 176 176 C117.92 176 59.84 176 0 176 C0 117.92 0 59.84 0 0 Z " fill="#0054FF" transform="translate(0,0)"/>
</svg>
