<?xml version="1.0" encoding="UTF-8"?>
<svg version="1.1" xmlns="http://www.w3.org/2000/svg" width="176" height="176">
<path d="M0 0 C58.08 0 116.16 0 176 0 C176 58.08 176 116.16 176 176 C168.12495457 169.24996106 168.12495457 169.24996106 165.49932957 166.62517071 C164.89669838 166.02514726 164.29406718 165.42512382 163.67317444 164.80691785 C163.03599407 164.16750675 162.3988137 163.52809566 161.74232483 162.86930847 C161.04622351 162.17476714 160.35012218 161.48022581 159.63292688 160.76463777 C157.31679288 158.45247099 155.00422416 156.13677213 152.69165039 153.82104492 C151.0258214 152.1565718 149.35977993 150.4923113 147.69354248 148.82824707 C143.18143012 144.32068487 138.67247602 139.80997587 134.16422582 135.29855132 C129.92603191 131.05808074 125.68583092 126.81961828 121.44576602 122.58101872 C112.54404362 113.68214313 103.64538094 104.78021297 94.74777221 95.87722454 C87.10759416 88.23257037 79.46478575 80.59055415 71.82006836 72.95043945 C62.93872956 64.07444538 54.0590062 55.19684035 45.18187708 46.31663591 C40.4836831 41.61685859 35.78478645 36.91778819 31.08415413 32.22044945 C26.67177645 27.81094781 22.26182804 23.39903134 17.85379028 18.98519135 C16.23081399 17.36088649 14.60697448 15.73744365 12.98223686 14.11490059 C10.77544568 11.9108169 8.57171782 9.70371699 6.36878967 7.49577332 C5.71599425 6.84520861 5.06319883 6.19464391 4.39062172 5.52436513 C0 1.11415052 0 1.11415052 0 0 Z " fill="#0055FF" transform="translate(0,0)"/>
</svg>
